<svg width="18" height="19" fill="none" xmlns="http://www.w3.org/2000/svg"><path d="m1.5 5.75 6.124 4.287c.496.347.744.52 1.013.587.238.06.488.06.726 0 .27-.067.517-.24 1.013-.587L16.5 5.75M5.1 15.5h7.8c1.26 0 1.89 0 2.371-.245.424-.216.768-.56.984-.984.245-.48.245-1.11.245-2.371V7.1c0-1.26 0-1.89-.245-2.371a2.25 2.25 0 0 0-.983-.984C14.79 3.5 14.16 3.5 12.9 3.5H5.1c-1.26 0-1.89 0-2.371.245a2.25 2.25 0 0 0-.984.984C1.5 5.209 1.5 5.839 1.5 7.1v4.8c0 1.26 0 1.89.245 2.371.216.424.56.768.984.984.48.245 1.11.245 2.371.245Z" stroke="#FAFAFA" stroke-linecap="round" stroke-linejoin="round" opacity=".8"/></svg>