<svg width="22" height="19" fill="none" xmlns="http://www.w3.org/2000/svg"><path d="m1 4.5 8.165 5.715c.661.463.992.695 1.351.784a2 2 0 0 0 .968 0c.36-.09.69-.32 1.351-.784L21 4.5m-15.2 13h10.4c1.68 0 2.52 0 3.162-.327a3 3 0 0 0 1.311-1.311C21 15.22 21 14.38 21 12.7V6.3c0-1.68 0-2.52-.327-3.162a3 3 0 0 0-1.311-1.311C18.72 1.5 17.88 1.5 16.2 1.5H5.8c-1.68 0-2.52 0-3.162.327a3 3 0 0 0-1.311 1.311C1 3.78 1 4.62 1 6.3v6.4c0 1.68 0 2.52.327 3.162a3 3 0 0 0 1.311 1.311c.642.327 1.482.327 3.162.327Z" stroke="#FAFAFA" stroke-width="2" stroke-linecap="round" stroke-linejoin="round"/></svg>