<svg aria-hidden="true" style="position: absolute; width: 0; height: 0; overflow: hidden;" version="1.1" xmlns="http://www.w3.org/2000/svg" xmlns:xlink="http://www.w3.org/1999/xlink">
<defs>
<symbol id="icon-pagination-arrow-right" viewBox="0 0 17 32">
<path  d="M.758 2.255c-.24.246-.431.538-.561.859S0 3.78 0 4.128s.067.693.197 1.014.321.614.561.859l10.056 10.311L.758 26.623c-.485.497-.757 1.171-.757 1.873s.272 1.377.757 1.873c.485.497 1.142.776 1.827.776s1.343-.279 1.827-.776l11.896-12.198c.24-.246.431-.538.561-.859s.197-.666.197-1.014-.067-.693-.197-1.014-.321-.614-.561-.859L4.412 2.227c-.985-1.01-2.644-1.01-3.654.027z"/>
</symbol>
<symbol id="icon-pagination-arrow-left" viewBox="0 0 17 32">
<path  d="M16.309 2.255c.24.246.431.538.561.859s.197.666.197 1.014-.067.693-.197 1.014-.321.614-.561.859L6.253 16.312l10.056 10.311c.485.497.757 1.171.757 1.873s-.272 1.377-.757 1.873c-.485.497-1.142.776-1.827.776s-1.343-.279-1.827-.776L.759 18.171c-.24-.246-.431-.538-.561-.859s-.197-.666-.197-1.014.067-.693.197-1.014.321-.614.561-.859L12.655 2.227c.985-1.01 2.644-1.01 3.654.027z"/>
</symbol>
</defs>
</svg>