<svg width="18" height="19" fill="none" xmlns="http://www.w3.org/2000/svg"><path d="M12.75 8.75V6.5a3.75 3.75 0 1 0-7.5 0v2.25m.6 7.5h6.3c1.26 0 1.89 0 2.371-.245.424-.216.768-.56.984-.983.245-.482.245-1.112.245-2.372v-.3c0-1.26 0-1.89-.245-2.371a2.25 2.25 0 0 0-.984-.984c-.48-.245-1.11-.245-2.371-.245h-6.3c-1.26 0-1.89 0-2.371.245a2.25 2.25 0 0 0-.984.984c-.245.48-.245 1.11-.245 2.371v.3c0 1.26 0 1.89.245 2.371.216.424.56.768.984.984.48.245 1.11.245 2.371.245Z" stroke="#FAFAFA" stroke-linecap="round" stroke-linejoin="round" opacity=".8"/></svg>