<svg width="20" height="21" fill="none" xmlns="http://www.w3.org/2000/svg"><path d="M15 9.5v-3a5 5 0 0 0-10 0v3m.8 10h8.4c1.68 0 2.52 0 3.162-.327a3 3 0 0 0 1.311-1.311C19 17.22 19 16.38 19 14.7v-.4c0-1.68 0-2.52-.327-3.162a3 3 0 0 0-1.311-1.311C16.72 9.5 15.88 9.5 14.2 9.5H5.8c-1.68 0-2.52 0-3.162.327a3 3 0 0 0-1.311 1.311C1 11.78 1 12.62 1 14.3v.4c0 1.68 0 2.52.327 3.162a3 3 0 0 0 1.311 1.311c.642.327 1.482.327 3.162.327Z" stroke="#FAFAFA" stroke-width="2" stroke-linecap="round" stroke-linejoin="round"/></svg>